<?xml version="1.0" encoding="utf-8"?>
<!-- Generator: Adobe Illustrator 23.1.1, SVG Export Plug-In . SVG Version: 6.00 Build 0)  -->
<svg version="1.1" id="Layer_1" xmlns="http://www.w3.org/2000/svg" xmlns:xlink="http://www.w3.org/1999/xlink" x="0px" y="0px"
	 viewBox="0 0 1366 768" style="enable-background:new 0 0 1366 768;" xml:space="preserve">
<style type="text/css">
	.st0{fill:url(#SVGID_1_);}
	.st1{fill:#212628;}
	.st2{fill:#F9D98A;}
	.st3{fill:#F5D6BB;}
	.st4{fill:#B28474;}
	.st5{fill:#F2CAAF;}
	.st6{fill:url(#SVGID_2_);}
	.st7{fill:url(#SVGID_3_);}
	.st8{fill:url(#SVGID_4_);}
	.st9{opacity:0.19;fill:#212628;enable-background:new    ;}
	.st10{fill:#FFFFFF;}
	.st11{fill:none;stroke:#B28474;stroke-width:0.25;stroke-miterlimit:10;}
	.st12{fill:#2A2C1F;}
	.st13{fill:none;stroke:#231F20;stroke-width:0.25;stroke-miterlimit:10;}
	.st14{opacity:0.28;fill:#EDB7B6;enable-background:new    ;}
	.st15{fill:#667057;}
	.st16{font-family:'ReenieBeanie';}
	.st17{font-size:99.8307px;}
	.st18{fill:#DA3B26;}
	.st19{font-family:'CaveatBrush-Regular';}
	.st20{font-size:99.1446px;}
	.st21{font-size:45.1855px;}
</style>
<linearGradient id="SVGID_1_" gradientUnits="userSpaceOnUse" x1="0" y1="384.8898" x2="1366" y2="384.8898" gradientTransform="matrix(1 0 0 -1 0 767.8898)">
	<stop  offset="0" style="stop-color:#E7DDD1"/>
	<stop  offset="0.7503" style="stop-color:#667057"/>
</linearGradient>
<rect y="-2" class="st0" width="1366" height="770"/>
<g>
	<polygon class="st1" points="1123.1,407.7 1119.6,377.9 1135.3,367.4 1166.9,393.7 1179.1,409.5 1156.4,435.7 	"/>
	<g>
		<path class="st2" d="M1264.7,671c-1.4-33.5-7.5-65.5-7.5-65.5s0-44.5-5.6-53.8c0,0,6.1-31.8-0.8-54.1c0,0-3.8-38.6-11.9-63.5
			c0,0,0-6.1,2.5-7.6s0-5.8-3.8-13.2s-8.6-29.4-11.2-32.8c-2.5-3.5-22.6-25.2-24.1-28.5c-1.5-3.2,6.1-34.5-22.6-34
			c0,0-3.6-1.5-5.2-2.2s-9.7-9.7-25.1-9.4c0,0-7-10.4-9.2-21.5c-2.2-11.1-1.8-11.2-7.5-12.4c-5.7-1.2-17.2-9.5-17.2-9.5l3.6,114.3
			c0,0,19,0.5,25.5,3.2s13.3,14.5,15.4,18.9c1.9,4.2,11,7.9,11,7.9s-1.5,6.6-4.5,6.2c-3-0.4-4-2.6-15.1,1.6s-33.3,4.3-49.1,5.7
			c-15.8,1.4-13.3,10.1-21.7,12c-8.4,2-10.6,0.6-24.7,11.5c-14.1,10.9-5.4,0.1-19.5,14.4c0,0-11-3.8-41.2,21s-27.8,27.4-26.9,32.4
			v2.8c0,0-15.6,0.8-12.6,6.8c0,0-2.6,2,2.7,3s8.1-1.5,18.2,5.5c0,0-14.2-3.5-18.2-1s-4.8,4.5,0,6s5.9-1,9.9,3.5
			c0,0-10.1-2.3-15.1,4.3c0,0-8.8,5.5-8.5,6.5c0,0-28.4,6.9-47.9,33.5c0,0-16.1,17.3-13.2,19c0,0-9.3,2.2-11.5,4.2
			s-51.5,77.1-51.5,77.1l-16.6-5c0,0-5.2,19.6,0,28.8s29.7,28.8,30.2,31s4.3,11.8,26,10c0,0,13.1,3.7,14.4,0.2
			c1.3-3.4,4.3-2.7,6.5-6.1s1.4-2.3,6.6-3s24,1.1,26-1.9s11-9.5,11-9.5s21.3-8,28.8-17.8c0,0,12.5-18.3,19.8-20.8c0,0,5.8-2.8,7-4.3
			s12.5-1.8,13.5-3.8s23.5-17.4,24.3-18.8c0.8-1.4,4-2.4,7.3,5.1c3.3,7.5,5.8,24.5,9.5,29.8c3.8,5.3,5.3,39.3,13.3,48.8
			c3.8,4.5,6.2,13,7.4,22h218.8C1270,729.9,1265.4,687.7,1264.7,671z"/>
	</g>
	<path class="st3" d="M1048.4,384.3l14.4-28.3l26.9-9.6l20.4,5.7l9.6,5l2.9,9.7c0,0-0.1,9,2.5,10.4s16.3,7.5,19.9,16.3
		c3.5,8.9-8.3,15.2-8.3,15.2s-4.6,5.1,8.9,3c0,0-3.2,2.8-1.3,4.9c2,2.2,3.7,1.8,3.7,1.8l-92.7,34.1l-21.1-5.9L1048.4,384.3z"/>
	<path class="st4" d="M1070.3,409.7c0,0-5.1-4.6-5.5-8.9c0,0,1-1.8,2.8-4.9s-1.6-7-3.9-3c0,0-3.1-3.9,3.3-8.2c0,0-1.7-4.9,2.2-6.2
		c3.9-1.3,5.6-4.6,5.4-5.9s2.8-4.8,4.8-7.3c0,0-6.4,1-8.2,4.2c0,0,0.6,4.5-3.7,5.9c0,0-2.8,0.4-1.8-5.6c0,0,5.1-3.7,6.7-6.8
		c1.6-3.1,2.1-8.2,2.1-8.2l-12-2.7l-37,58.9l-24.4,30.1c0,0,13-1.9,16.2,0c0,0,2.2,2,3.9,4.3c0,0-0.7,3.9,2.5,4.2
		c3.3,0.3,3.7,5.1,3.6,6.7s10.2,0.8,11.9,1.2c1.7,0.4,10-9.9,11.6-10C1052.2,447.1,1048.4,431.7,1070.3,409.7z"/>
	<polygon class="st5" points="984.8,97.8 1005.8,61 1030.3,87.3 1026.8,110 1005.8,180.1 958.5,188.8 	"/>
	<path class="st1" d="M1047.1,169.9c0,0,22.6-8.8,29.8-1.9c7.2,6.9,24,19.7,30.2,25.9s8.5,15.9,9.6,19.2s-0.7,23.3,4.5,29.9
		c5.2,6.5,0.1,15.9-0.9,26.8c-1.1,10.9-2.8,10-0.7,15.3c2.1,5.3,3,10,1.4,18.5s-4.2,10.4-2.3,16.4s5.8,4.1,3.7,14.4
		s-5.5,11.1-2.8,18.3c2.6,7.2,5.6,11.5,2.4,15c-3.2,3.4-4.9,3.9-4.9,3.9s2.5-3.3,2.6-7.7c0.1-4.4-1.3-5.7-1.3-5.7
		s-10.7,11.8-15.7,14.9c-4.9,3.1-14.2,7.3-14.2,7.3s14.1-10.2,15.9-17.2c0,0-14.9,10.5-21.7,14c-6.8,3.5-9.2,3.2-9.2,3.2
		s22.1-16.1,23.2-22.4s-1-9.2-1-9.2s-28.1,10.3-29.9,16.4c0,0,3.7-15.5,12-22s-27,1.9-27,1.9l-4.6,10.6l-20.2-40.4l-82.5-15.1
		l-29.1,8.9c0,0-0.2,12,1.3,14.5s-4.1-0.6-5-7.9l-0.6-4.9c0,0-10.1,3.2-5.4-6.8c0,0-0.8-4.6-2.7-6.5s-23-28.9-5.2-42.6
		c17.9-13.6,16.3-14.3,16.3-14.3s24.1-0.2,29.3-9.8c5.3-9.6,30.9-53.7,30.9-53.7s22.6,2.8,31.1-4.9
		C1012.7,164.2,1026.5,160.6,1047.1,169.9z"/>
	<path class="st5" d="M916.1,296.9c0,0-4.4,11.9-2.9,18.1c1.5,6.1,5.4,10.6,5.4,10.6s0.8,4.1,3.6,5.9l1.6,1c0,0-2.2,6.6,1.2,15.6
		s19.8,30.4,21,32.8c0,0-3.1,14,1.8,17.4c4.9,3.4,4.5,3.5,4.5,3.5s-4,15.7,6.8,17.9h2.1c0,0-2.4,16.9,9.3,22.5s33.9-0.7,49.5-10
		s37-41.2,37-41.2s4.8-26.1,7.3-29.4c0,0,6.3-12.4,13.2-18.5c0,0,0.8-3.8,1.1-7.8c0,0,8.5-6.2,8.6-13.7s-12.2,6.2-12.2,6.2
		s9.7-11.1,7.4-12.6s-14.4,3.6-21.4,7.7c-7.1,4.1-11,7.9-11.7,11.6c0,0-0.5-2.2-1.9-2.7s-1.9,1.9-1.7,5.8c0.2,3.9,1.3,10.9,0.7,12.3
		c-0.6,1.4-1.9,2.7-2,1.7c0,0-0.8-0.3-1.5-6.5s-3.2-9.5-3.9-12c-0.7-2.5-5.2-8.6,1.7-7.9c0,0,2.7,3.3,0-8.2s-18.6-21.4-25.3-16.5
		s-0.2-4.6-0.9-8.8c0,0-6.3,1.9-11,0s-4.3-4.1,2.2-3.3c0,0,6.1-0.6,4.3-4.7s-12.3-3-17.9,5c-5.6,8-10.9,0.4-9-2.5s3.3-5.8-1.9-5.8
		s-3.3,11.1-7.9,15.3c0,0-10.8,6-7.2-2c0,0,0.5-1.1,3.5-2c2.9-1,1.9-8.2,0.6-9.4c-1.3-1.2-10.8,6.6-12.6,11.2s-7.5,10.6-7.7,3.2
		c-0.1-7.4,5.4-12.8,5.4-12.8s-1-6.4-0.5-7.7c0.5-1.2-3.5,13.3-10.6,3.5c0,0,3.4,7.5-0.2,11.7c-3.6,4.2-2.2,2.8-4.4-1.3
		c-2.2-4.1-3.3-6.4-5.9-6.8c-2.7-0.4-2.7,2.9,0.5,5.3c3.1,2.4,2.2,9.8-3.7,4.8c0,0-1.6-4.8-3.5-5.8s-5.4,2.1-3.2,5.8
		c0,0,1,2.7,2.2,2.8c0,0-3.6,1.1-6.2-1.5c0,0-2.6,2-1.7,5.3C918.1,300.1,916.8,298.4,916.1,296.9z"/>
	
		<linearGradient id="SVGID_2_" gradientUnits="userSpaceOnUse" x1="906.8269" y1="636.1478" x2="1040.2197" y2="636.1478" gradientTransform="matrix(1 0 0 -1 0 767.8898)">
		<stop  offset="0" style="stop-color:#F9D98A"/>
		<stop  offset="0.5189" style="stop-color:#FDF5AD"/>
		<stop  offset="1" style="stop-color:#F9D98A"/>
	</linearGradient>
	<path class="st6" d="M911.3,231.4c0,0-7.8-5.8-2.8-13.5c4.3-6.7,4.4-6.5,95.5-181.4c0,0,11.9-19.8,27-5s8.4,19.4,2.7,28.6
		c-5.7,9.2-85.3,173.9-99.1,176.5C920.8,239.1,915.2,235.9,911.3,231.4z"/>
	<path class="st5" d="M669.8,373.9c0,0-15.3-12.5-21.7-22.3c-6.5-9.8-16.4-18.6-27.4-25c0,0-11-10.6-15.7-11.7c0,0-11-7.2-16.8-4.5
		c-5.9,2.7-6.7,7.6,0,12.1c0,0,4.3,5.6,7.8,7.3c0,0,0.7,3.2,6.4,6l3.4,2.1c0,0,1.5,3.8,4.2,7.2c2.6,3.4,2.6,3.4,2.6,3.4
		s-17.2-11.9-27.8-12.7c0,0-7.6-10.4-14.9-11.5c0,0-8.9-9.8-14.5-6c0,0-10.4,2.5-4.9,7.6l1.7,2.1c0,0-16.2,5.1-2,12.1
		c0,0,3.9,5.2,5.8,6.8c0,0-16.3,11.5,1.3,13.3c0,0,16.5,19.7,30.3,25.8c13.8,6.1,26.5,14.8,37.5,26.5
		C636.2,424.2,669.8,373.9,669.8,373.9z"/>
	
		<linearGradient id="SVGID_3_" gradientUnits="userSpaceOnUse" x1="676.2993" y1="405.8642" x2="708.3737" y2="367.6393" gradientTransform="matrix(1 0 0 -1 0 767.8898)">
		<stop  offset="0" style="stop-color:#F9D98A"/>
		<stop  offset="0.5189" style="stop-color:#FDF5AD"/>
		<stop  offset="1" style="stop-color:#F9D98A"/>
	</linearGradient>
	<path class="st7" d="M776.2,303.4c0,0-9.2-12.7-29.9,2.2c-20.7,15-139.4,112.3-143.5,122.5c-4.1,10.2-7.3,23.9,6.7,28
		s20.4,9.5,29.6,2.2c9.2-7.3,75.1-74.8,81.5-81.8s49.3-38.5,59.5-54.1C780.1,322.5,784.6,310.6,776.2,303.4z"/>
	
		<linearGradient id="SVGID_4_" gradientUnits="userSpaceOnUse" x1="774.9" y1="498.7898" x2="919.2064" y2="498.7898" gradientTransform="matrix(1 0 0 -1 0 767.8898)">
		<stop  offset="0" style="stop-color:#F9D98A"/>
		<stop  offset="0.5189" style="stop-color:#FDF5AD"/>
		<stop  offset="1" style="stop-color:#F9D98A"/>
	</linearGradient>
	<path class="st8" d="M774.9,305.1l125-64.5c0,0,15-11.6,16.1-11.6s4,1.7,3,4c-1,2.2-16.7,11.1-16.7,11.1l-125.6,65.1L774.9,305.1z"
		/>
	<path class="st5" d="M738.5,409.7c0,0,5.8-2.4,2.2-18.5s-5.1-29.5-5.8-32.6s-11.7-11.2-14.8-25.5s-23.4,0-14.1,20.7
		c9.3,20.7,8.8,18.1,8.8,18.1s0.2,19.3-3.8,20.7c-4.1,1.4-8.2,2.3-8.2,2.3l-50.1,50.5c0,0,5.3,9.6,18.5,19.4c0,0,9.1,10.2,10.5,16
		c1.4,5.7-4.1,7.9,12.9,20.7c0,0-2.3,9.4,9.3,20.2c0,0,34.9,74.1,65.4,114.8s43,57.5,43,57.5s21.5-5.9,73.1-45.3
		c0,0,19.9-23.8-3.5-39.5c0,0-15.4-8.1-20.1-12.5s-20.3-18-60.7-46c0,0-55.3-64.2-58.4-68.6c0,0-5.6-18-13.3-24.5
		c0,0-4.7-15.9,0.9-21.7C736,430.1,739.9,415.7,738.5,409.7z"/>
	<path class="st3" d="M966.4,128.1c0,0-4.6,0.1-12.1-2.7c-7.4-2.8-11.7-5.4-12.1-8.5c-0.4-3.1-2-7.7,12.1-7.6s16.5,0.5,17.1,0.5
		s15.5,4.5,20.2,5c4.6,0.5,2.4,7.8,4.4,9s13,16.9,14.1,16.6s2.7-2.1,2.7-2.1s5.3-16.7,4.9-20.5s-5.8-16.1-7.4-17.7
		c-1.6-1.6-10.9-9.4-12.3-10s-10.9-15.3,8.5-6.9c0,0,5.8,6.4,12.2,8.7c0,0,3.8-1.1,4,3.8l4.7,13.8c0,0,0.7-19.6-0.8-20.5
		s-8-7.8-9.5-10.4c-1.5-2.7-6.6-14.2,12.9-5.2c0,0,3.2,1.3,4.8,0.9s7.2-15.4,15.8-12.5c8.6,2.9,5.6,7.5,2.3,9.9c0,0-3.6,1.2-3.8,1.2
		c-0.1,0-0.1,0-0.1,0s6,4-2.1,13.3c0,0,0.3,6.8-9.2,8.7c0,0-1.2,2,1.7,5.1c2.9,3.1-3.5,6.4-7.4,10.3s-7.5,8.3-3.9,20.2
		c3.6,12-2.6,14.4-2.6,14.4s2,6.6-3.5,4.9c0,0,3.3,10-2.7,10.1s-5.5,0-5.5,0s-0.8,16.1-12.5,3.5c0,0-7.5-2.9-11.6-2.4
		c-4.2,0.5-9.2,2-9.2,2s5.1-11.1,3.2-16.4C981.8,141.7,980.8,128.9,966.4,128.1z"/>
	<path class="st9" d="M955,313.2l38.5-8.8c0,0-26.3,14-26.3,15.8s0,0,0,0S958.5,316.7,955,313.2z"/>
	<path class="st1" d="M946.8,308.7c0,0,5.4,4.9,19.9,0c7.6-2.5,16.6-7.9,21.6-7.7s8.8,2.8,8.8,2.8s-21.3,4.9-25.1,7.1
		c-3.8,2.1-12.8,5.4-12.8,5.4S952.3,314.5,946.8,308.7z"/>
	<path class="st1" d="M935.7,316.5c0,0-8.4-4-12.8-7.5c-4.5-3.5-10,2.7-10,2.7l0.3,3.4c0,0,3.8-3,7.4-1.6S935.7,316.5,935.7,316.5z"
		/>
	<path class="st10" d="M970.8,316.7c0,0,15.8-3.5,17.5-3.5s10.5,3.5,8.8,5.3l-1.4,0.8c0,0-4.7,4.4-7.8,6.2s-5,4.8-13.7,0.7
		c0,0-6.9-2.4-6.9-4.1l-0.4-1l2.1-2.5L970.8,316.7z"/>
	
		<ellipse transform="matrix(0.6423 -0.7664 0.7664 0.6423 106.2341 865.4709)" class="st1" cx="980.4" cy="318.9" rx="5.7" ry="3.9"/>
	<path class="st1" d="M966.9,321c0,0,0.7-5.4,6.3-5.7c5.6-0.4,12.9-3.5,16.8-2.7c3.9,0.9,11.2,4.8,5.5,6.7c0,0,2.1-2.6-6.3-3.7
		c-8.4-1.1-5.9-1.1-12.3,0.2C970.6,317.2,969,317.6,966.9,321z"/>
	<g>
		<path class="st10" d="M979,315.6c0,1.2,0.6,2.2,1.2,2.2c0.7,0,1.2-1,1.2-2.2c0-0.2,0-0.5-0.1-0.7c-0.6,0.1-1.3,0.2-2.4,0.5
			C979,315.5,979,315.5,979,315.6z"/>
		<path class="st1" d="M973.2,315.3c-5.6,0.4-6.3,5.7-6.3,5.7c2.1-3.4,3.7-3.9,10-5.2c0.9-0.2,1.5-0.3,2.1-0.5
			c0-0.5,0.1-0.9,0.3-1.2C977.2,314.7,975.1,315.2,973.2,315.3z"/>
		<path class="st1" d="M990,312.6c-2.2-0.5-5.6,0.3-9.1,1.2c0.2,0.3,0.4,0.6,0.5,1.1c1.5-0.2,2.6,0.1,7.8,0.7
			c8.4,1.1,6.3,3.7,6.3,3.7C1001.3,317.4,993.9,313.5,990,312.6z"/>
	</g>
	<path class="st10" d="M920,325.4c0,0,8.8-7,10.5-7s7-1.8,8.8,0s1.1,3.7,1.1,3.7l0.1,0.2c0,0,2,2.7-1.4,5.5
		c-3.3,2.8-6.3,3.5-11.8,3.1C927.3,331,921.7,328.9,920,325.4z"/>
	<ellipse transform="matrix(0.5363 -0.844 0.844 0.5363 160.2703 937.0094)" class="st1" cx="932.9" cy="322.6" rx="5" ry="3.6"/>
	<ellipse class="st10" cx="931.8" cy="319.7" rx="1.1" ry="2"/>
	<path class="st1" d="M941.4,319.8c0,0,0.9-2.8-7-2.4c-9.3,0.4-20.1,7.4-12.5,9.9c0,0,1.5-3.9,6.7-6.6c5.2-2.6,7.7-2,10.3-1.6
		c1.8,0.3,1.2,2,1.6,3.2C940.7,323.1,941.4,319.8,941.4,319.8z"/>
	<path class="st11" d="M943.7,319.8c0.9,1.9,3.6,1.8,2.7,7.5c0,0-1.7,26.7-2.7,30.2s-6.1,13,1.4,13.6s10-1.7,18,0s5.2,3.7,2.5,4.5
		s14.9-0.3,9.3-10.4c-5.6-10.1-12.2-8.3-12.2-8.3"/>
	<path class="st11" d="M951.1,375.1c0,0,0.6-3.3,10.7-3.1c0,0,8.4,1.5,1.7,2.3s-5.7,1.7-6.7,2.4
		C955.8,377.4,950.7,377.8,951.1,375.1z"/>
	<path class="st11" d="M948.8,390.9c0,0,3.9-2.4,8.3-0.8"/>
	<path class="st11" d="M963.3,390.9c0,0,6.9-1.2,10.5,2.8"/>
	<path class="st11" d="M951,398.3c0,0,4.5,1.4,7.6,1.1l1-0.5c0,0,7.7,1.9,14.6,1.4"/>
	<path class="st11" d="M958.5,402.1c0,0,2.9,1.9,3.5,3.6c0,0,5.5-2,16.3-2.4"/>
	<path class="st11" d="M978.3,417.8c0,0-12.3,3.8-15.7,2.9"/>
	<path class="st11" d="M1111.1,375.4c0,0-15.5,9.5-26.4,23.9"/>
	<path class="st11" d="M1107.2,396.6c0,0-9.9,14.4-15.9,25.2"/>
	<path class="st11" d="M954.5,333.7c0,0,7.3,5.5,8.1,8.2"/>
	<path class="st11" d="M970.8,324.7c0,0,5.7,2.4,6.8,2.6"/>
	<path class="st11" d="M992.9,321.4c0,0-5.3,4.6-7.6,5.3"/>
	<path class="st11" d="M940.6,326.5c0,0-3.2,3.5-6.4,4.1"/>
	<path class="st11" d="M925.1,329.9c0,0,1.4,1.3,3.3,1.3"/>
	<path class="st11" d="M1005.5,380.4c0,0-1.9,13.3,10.3,11.5"/>
	<path class="st11" d="M1045.5,364.8c0,0-5.6,11.4-11.2,15.7"/>
	<path class="st12" d="M1129.7,437.9c0,0-27.6,23.6-28.9,27.2s-2.9,2.3-2.9,2.3s-7.2,11.2-8.9,12.8c-1.6,1.6-7.2,2.3-8.2,0
		s-6.6,2-11.2,8.9c0,0,2.9,2.1-7.4,8.2s-13.7,13.3-26.9,50.8c0,0-24.5,42.4-30.7,48.7c-6.2,6.2-20.7,22.5-23.1,24.9
		c-2.4,2.4-14.3,15-15.8,14.6c0,0-2.6-10.2-16.3-19.7c-13.7-9.6-16.6-12-16.6-12s5.9-5,6.4-6.2s14.6-17.2,16.7-18.5
		s14.3-16.6,15.3-18.2s5.9-9.1,6.2-9.9s10.3-16.7,15.3-19.9s15.3-44.4,17.9-46.9c2.6-2.6,6.4-2.6,6.4-2.6s-0.3-2.6,4.6-5.6
		c0,0,0.8-10.3,19.1-11.1c0,0,4.4-3.5,4.6-4.4s0.5-5.3,15.2-3.8c0,0,0.6-4.4,11.7-4.1c0,0,8.8-12.5,20.1-14.5
		C1104,436.5,1129.7,437.9,1129.7,437.9z"/>
	<path class="st12" d="M838.7,695.6c0,0,17.7-10.1,18.1-11.9s8.5,7.8,9.5,10.4c1,2.6,5.1,2.4,8.3,1.6c0,0,5.6,1.5,8.7,3.2
		c3.1,1.7,12.1-0.3,13.3-2.5s18-7.5,18.5-9.3c0.5-1.9,0.8-2.5,7.1-0.3s10.9-1.2,10.9-3.1c0.1-2-1.4-9.9-1.6-11.5
		c-0.2-1.5,2.4-2.2,5.1-2.2s10-3.9,9.9-6.1c-0.2-2.2,15.1,2.5,18-4.4c0,0,2-6.1,2.2-7.5s3.6,22.9,0,31.9s-2.7,13.3-14.4,18.9
		c0,0-13.8,11.2-28.7,13.9c0,0-2.4,9.5-12.2,12.9c-9.9,3.4-18,0-18,0s-2.9,3.4-4.4,4.1c0,0,0.8,3.9,0.3,5.7c0,0-6,0.3-6.6,1
		s-3.2,4-3.6,4.3c-0.4,0.3-9.8,0.1-16.8-8.9c0,0-10.5-0.5-18.1-0.9c0,0-1.9-3.2-6.1-5.8c-4.2-2.6-16.7-10.3-17-13.2
		s-3.3-5.8-3.2-8.7s2.1-6.4,7.2-7.1S838.7,695.6,838.7,695.6z"/>
	<path class="st12" d="M1183.6,392.9c0,0-1.1,11.8,15,3.4c16.1-8.5,11-1.4,12.5-0.2c1.5,1.2,7,0.4,10.3-9.7s2.6-8.7,2.6-8.7
		s-21.6-23.6-21.9-25.7c-0.2-2.1,5.1-35.2-22.6-34c0,0-4.7-1.3-5.1,5c0,0-3.4,2.7,1.9,8.3c0,0,2.8,3.8,11,1.1c0,0,6.9,2.1,5.2,5.5
		c-1.6,3.4-6.6,7-6.2,11.2s4.7,3.2,4.7,3.2s1.1,3.2-2,6.3c-3.1,3.1-3.4,7-3.4,7s-9.8,2.4-2.4,5s-0.3,7.3-2.7,5.5
		c-2.4-1.7-12.6-0.4-11.8,1.5C1169.6,379.4,1179.4,383.2,1183.6,392.9z"/>
	<path class="st13" d="M897.9,595.5c0,0,13.1-7.5,35.2,8.9c22.1,16.4,32.8,24.1,33.9,40.9l-0.3,6.5l-2.2,7.5"/>
	<path class="st13" d="M920,616c0,0,12.2,11.2,15.1,57.1"/>
	<path class="st13" d="M904.7,644.5c0,0,9.6,15.3-43.6,58.7"/>
	<path class="st13" d="M905.3,666.3c0,0-2.5,30.4-10,40.5"/>
	<path class="st13" d="M899.2,605.4c0,0,8.8,2.3,11.4,13.5"/>
	<path class="st13" d="M900.3,586.4c0,0,18.6-10.9,32.8,3.4"/>
	<path class="st13" d="M998,612.1c0,0,13.1,7.8,9.9,14.4c-3.1,6.6-17.9,48.4-32.7,54.4"/>
	<path class="st13" d="M1055.7,528c0,0,9.9,55.3-21.3,102.3"/>
	<path class="st13" d="M1070.8,545.7c0,0,8.4,71-65.7,126.8"/>
	<path class="st13" d="M1088.4,579.1c0,0-37.9,57.1-47.5,65.4"/>
	<path class="st13" d="M1084,616c0,0-37.9,37.1-52.6,45.2"/>
	<path class="st13" d="M1112.3,636.2c0,0-54.1,19.8-74.2,23.1"/>
	<path class="st13" d="M1216,714.8c0,0-89.3,12.7-133.2-31.2"/>
	<path class="st13" d="M1240.5,762.7c0,0-87.9-2.3-133.2-36.1"/>
	<path class="st13" d="M1231.7,626.5c0,0-17.1,4.4-45.5,25.2"/>
	<path class="st13" d="M1161.7,666.3c0,0-38.6,14.2-70.5,7.5"/>
	<path class="st13" d="M1079.2,487.5c0,0,4.2,12.1,12,23.2c7.8,11.1,12.2,26.1,12.2,26.1"/>
	<path class="st13" d="M1082.7,521.8c0,0,8,17.1,10.4,32.8"/>
	<path class="st13" d="M1093.2,494.4c0,0,18.2,21.5,19.1,43.8"/>
	<path class="st13" d="M1093.2,481.6c0,0,6.6,5.9,18,5.9"/>
	<path class="st13" d="M1132.8,484.6c0,0,26.4,29.6,33.3,43.4"/>
	<path class="st13" d="M1126.5,487.5c0,0,13,17.9,21.7,28.8"/>
	<path class="st13" d="M1191.1,465c0,0,67.1,102.3,53.8,167.9c0,0-6.4,48.3,7.3,65.2c0,0,5.9,6.7,8.3,22.9"/>
	<path class="st13" d="M1183.1,407.3c0,0,5.7-3.6,15.4,14.6"/>
	<path class="st13" d="M1131.3,375.8c0,0,23.1-17.2,44.8,23.5"/>
	<path class="st1" d="M1129.7,364.8c0,0,25.5-13.6,46.4,2.1"/>
	<path class="st13" d="M1129.7,354.9c0,0,26.7-20.5,53.3-8.6"/>
	<path class="st13" d="M1128.4,347.8c0,0,7-10.7,16.4-16"/>
	<path class="st13" d="M1131.3,333.8c-0.2-1.7,2.5-8.6,7.5-14"/>
	<path class="st13" d="M1129.7,319.8c0,0,2.8-6,10.3-7.3"/>
	<path class="st11" d="M679.9,466.3c0,0,5.2,13.8,17.4,22.2c12.1,8.4,30.6,36,30.6,36"/>
	<path class="st11" d="M719.4,401.2c0,0-6.5,21.1-5.2,26.2c0,0-11.7,8.6-10.4,18.6c0,0-9.7,4.2-9.7,8.6"/>
	<path class="st11" d="M553.1,336c0,0,5.2,2.5,8.2,6.9c3,4.5,4,3.5,6.4,5.7c2.5,2.2,3.7,7.7,7.7,8.7s10.2,5,13.1,6.7"/>
	<path class="st11" d="M594,368.4c0,0,0.7,6.9,3.5,7.7c2.7,0.7,22.8,20.6,22.8,20.6"/>
	<path class="st11" d="M628.4,370.6c0,0,5.4,8.5,8.2,9.6c2.7,1.1,5,2.3,5,2.3"/>
	<path class="st12" d="M650.8,406.3c0,0,2,7.7-4.7,4s-14.4-6.7-21.5-4l4.9-4.3C629.5,402,640.5,398.2,650.8,406.3z"/>
	<path class="st12" d="M663.7,424c0,0-2-9.5-5.1-11s-4.6,1.2-4.1,3.1c0.5,1.8,2.5,2.9,3.8,6.9c1.4,4,2.5,6.2-0.4,17.4l5.7-5.6
		C663.7,434.7,664.4,433.2,663.7,424z"/>
	<path class="st12" d="M673.8,401.7c0,0-4.2-7,2.5-7c0,0,1.6-0.8,3.1,4.6s2.5,10.1,1.2,18.1l-9.1,8.9c0,0,7.2-10.3,4.9-18.4
		C676.3,408,675.5,403.6,673.8,401.7z"/>
	<path class="st12" d="M670.2,388.5c0,0,0.4,7.2-5.6,3c-7.9-5.5-20.7-2.1-20.7-2.1l6.2-5.3C650.2,384,662.7,381.6,670.2,388.5z"/>
	<path class="st12" d="M1001.7,66.7c0,0,14.2,9.2,14.3,13.5s-4.5,0.1-8.3-3.8s-19-7.3-22.7-3.4l3.4-6.5
		C988.4,66.4,993.2,65,1001.7,66.7z"/>
	<path class="st12" d="M1025,53.4c0,0-9-6.9-11.8-7.3c-2.8-0.3-12.7-0.7-14.3,0.2l-3.1,6c0,0,6.7-4,13-3.3s12.3,5.6,13.6,6.3
		C1023.6,56.2,1026.6,55.5,1025,53.4z"/>
	<path class="st12" d="M1032.2,60c0,0-3-2.9-3.8-3s-2.2,0.9-1.6,1.8c0.5,0.9,4.3,2.8,4.6,5.6l1.8-3.4
		C1033.2,60.9,1033.5,61.2,1032.2,60z"/>
	<path class="st14" d="M980.8,407.3c1.3-0.4,3.9-1.3,3.9-1.3c-5.3-3.5-6.4-2.6-6.4-2.6c-10.9,0.4-16.3,2.4-16.3,2.4
		c-0.5-1.8-3.5-3.6-3.5-3.6c-1.5-0.9-4.1-1-6.4-0.7c0.4,0.4,0.3,0.4,0.3,0.4s-4,15.7,6.8,17.9h2.1c3.1-0.3,7.1-5.9,7.1-5.9
		C973,409.6,980.8,407.3,980.8,407.3z"/>
	<path class="st14" d="M973.1,400.3c4.1-0.3,6.4-0.9,4.7-3.2c-1.8-2.3-9.3-4.2-9.3-4.2c-2.3-0.7-8.2,0.7-8.2,0.7
		c-3.5-2.3-7-1.6-7-1.6c-1.1-0.3-5.3,1-8.1,1.9c0.1,1.9,0.7,3.7,2.2,4.7c6.2,0.7,12.6,0.7,12.6,0.7S969,400.6,973.1,400.3z"/>
	<path class="st9" d="M921.7,311.4l18.7,6.7l-8.6,0.5l-4.7,1.5c0,0-8.9-7-12.4-7L921.7,311.4z"/>
</g>
<text transform="matrix(1 0 0 1 73.4648 161.2778)" class="st15 st16 st17">Why People Don’t Like</text>
<g>
	<text transform="matrix(1 0 0 1 73.1865 271.1748)" class="st18 st19 st20">HONG KONG Films</text>
</g>
<text transform="matrix(1 0 0 1 73.6982 371.6533)" class="st15 st16 st17">Anymore?</text>
<g>
	<text transform="matrix(1 0 0 1 73.1367 607.8105)" class="st15 st16 st21">Created by Yutong Han</text>
</g>
<g>
	<path class="st12" d="M1125.5,760.3c-22.6-42.5-22.9-41.6-25.3-43.8s-4.8-7-4.8-7c-1.8-9.7-9.4-23.6-12.6-25.8
		c-3.2-2.2-3.5-14-7-21.1c-3.5-7.1-2.7-10.9-2.7-10.9h-3.8c-5.4,1.2-24.5,8.3-24.5,8.3s5.6,9.6,6.4,11.3s7.4-0.9,10.3,4.6
		s2.8,10.7,6.9,16.7s7.8,9.8,10.1,18.4s10.9,15.5,10.9,15.5c3.2,16.9,8.9,26.7,8.9,26.7c0.5,5.8,1.2,10.7,1.9,14.8h27.3
		C1126.3,763.2,1125.5,760.3,1125.5,760.3z"/>
</g>
</svg>
